# xmcd
#
# Track frame offsets:
#	150
#	16325
#	30617
#	44242
#	58537
#	72972
#	86130
#	99490
#	113427
#	128337
#	143037
#	156400
#	170212
#	183915
#	197605
#	211277
#	223950
#	238500
#	249062
#
# Disc length: 3492 seconds
# Revision: 4
# Processed by: cddbd v1.5.2PL0 Copyright (c) Steve Scherf et al.
# Submitted via: dBpowerAMP V12.0
#
DISCID=0b0da213
DTITLE=John Lee Hooker - I'm A Boogie Man - The Essential Masters (1948-1953) [Varese Sarabande 302 066 597 2]
DYEAR=2004
DGENRE=Blues
TTITLE0=Black Man Blues [King single 4283, 1949]
TTITLE1=Who's Been Jiving You [King LP 885, recorded 1948]
TTITLE2=Poor Joe [King LP 885, recorded 1948]
TTITLE3=Stomp Boogie [King single 4283, 1949]
TTITLE4=The Numbers [King single 4315, 1949]
TTITLE5=Devil's Jump [King single 4315, 1949]
TTITLE6=Nightmare Blues [King single 4323, 1949]
TTITLE7=I'm Gonna Kill That Woman [King single 4323, 1949]
TTITLE8=Wandering Blues [King single 4334, 1950]
TTITLE9=Don't Go Baby [King single 4334, 1950]
TTITLE10=Late Last Night [King single 4366, 1950]
TTITLE11=Moaning Blues [King single 4377, 1950]
TTITLE12=Slim's Stomp [King single 4329, 1950]
TTITLE13=Heart Trouble Blues [King single 4329, 1950]
TTITLE14=Thinking Blues [King single 4377, 1950]
TTITLE15=Don't You Remember Me [King single 4366, 1950]
TTITLE16=I Came To See You Baby [DeLuxe single 6009, 1953]
TTITLE17=I'm A Boogie Man [DeLuxe single 6009, 1953]
TTITLE18=My Baby Left Me [unissued on DeLuxe, 1953]
EXTD=
EXTT0=
EXTT1=
EXTT2=
EXTT3=
EXTT4=
EXTT5=
EXTT6=
EXTT7=
EXTT8=
EXTT9=
EXTT10=
EXTT11=
EXTT12=
EXTT13=
EXTT14=
EXTT15=
EXTT16=
EXTT17=
EXTT18=
PLAYORDER=
